<svg width="79" height="23" viewBox="0 0 79 23" fill="none" xmlns="http://www.w3.org/2000/svg">
<path d="M14.6711 1.09589C14.9476 1.09589 15.2128 1.20574 15.4084 1.40129C15.6039 1.59683 15.7138 1.86204 15.7138 2.13858C15.7138 2.41512 15.6039 2.68034 15.4084 2.87588C15.2128 3.07142 14.9476 3.18128 14.6711 3.18128C13.5125 3.18128 12.6564 3.90537 12.0852 5.11143C13.5438 4.49739 15.1055 4.28538 16.5039 4.65959C18.4178 5.17283 19.8776 6.25839 20.5669 8.10049C21.2262 9.86149 21.1115 12.138 20.3677 14.9174C19.771 17.1453 18.6924 19.0836 17.228 20.3568C15.7369 21.6521 13.8427 22.2487 11.7932 21.7007C11.3454 21.5791 10.9116 21.4105 10.4991 21.1979C10.087 21.4105 9.65363 21.579 9.20619 21.7007C7.15671 22.2487 5.26248 21.6521 3.77258 20.3568C2.30701 19.0824 1.22956 17.1453 0.632905 14.9174C-0.112044 12.138 -0.225582 9.86033 0.432475 8.10165C1.12297 6.25955 2.58275 5.17283 4.49667 4.66075C5.34473 4.43367 6.25188 4.42093 7.16134 4.58429C6.20206 3.69799 5.83133 2.4734 5.95529 2.25444C6.10706 1.99376 7.88196 1.62419 9.32552 2.45718C9.84107 2.75493 10.2443 3.16738 10.542 3.58446C11.368 2.22663 12.7004 1.09589 14.6711 1.09589Z" fill="#4C4947"/>
<path d="M30.638 18V5.4H34.58C35.834 5.4 36.941 5.67 37.901 6.21C38.861 6.744 39.611 7.485 40.151 8.433C40.697 9.381 40.97 10.473 40.97 11.709C40.97 12.627 40.814 13.473 40.502 14.247C40.196 15.015 39.758 15.678 39.188 16.236C38.618 16.794 37.943 17.229 37.163 17.541C36.383 17.847 35.522 18 34.58 18H30.638ZM32.654 16.119H34.337C35.015 16.119 35.63 16.02 36.182 15.822C36.74 15.618 37.217 15.324 37.613 14.94C38.015 14.556 38.324 14.094 38.54 13.554C38.756 13.008 38.864 12.393 38.864 11.709C38.864 10.791 38.675 10.002 38.297 9.342C37.925 8.676 37.4 8.166 36.722 7.812C36.044 7.452 35.249 7.272 34.337 7.272H32.654V16.119ZM41.6695 18L46.5655 5.4H48.7525L53.7745 18H51.4975L50.3365 14.994H44.9995L43.8835 18H41.6695ZM45.5215 13.257H49.7965L47.6185 7.767L45.5215 13.257ZM55.5989 18V5.4H57.6149V18H55.5989ZM60.9075 18V5.4H62.9235V16.146H68.4135V18H60.9075ZM72.0064 18V12.555L67.5604 5.4H69.8644L73.0594 10.611L76.2364 5.4H78.4774L74.0314 12.573V18H72.0064Z" fill="#4C4947"/>
</svg>
