<svg width="106" height="23" viewBox="0 0 106 23" fill="none" xmlns="http://www.w3.org/2000/svg">
<path d="M3.36 2.21154C3.36 2.93507 3.68993 3.57745 4.2 3.98093V10.6154C4.2 11.3134 4.58384 11.917 5.14136 12.2049C5.0749 12.5487 5.04 12.9047 5.04 13.2692C5.04 15.2549 6.07539 16.9859 7.60862 17.8961C3.21567 18.5308 0 20.5756 0 23H21C21 20.4489 17.4397 18.3182 12.6937 17.8083C14.1483 16.8774 15.12 15.1928 15.12 13.2692C15.12 12.9047 15.0851 12.5487 15.0186 12.2049C15.5762 11.917 15.96 11.3134 15.96 10.6154V3.98093C16.4701 3.57745 16.8 2.93507 16.8 2.21154C16.8 0.990139 15.8598 0 14.7 0C14.2272 0 13.791 0.164515 13.44 0.442147C13.089 0.164515 12.6528 0 12.18 0C11.493 0 10.8831 0.347364 10.5 0.884401C10.1169 0.347364 9.50695 0 8.82 0C8.13305 0 7.52314 0.347364 7.14 0.884401C6.75686 0.347364 6.14695 0 5.46 0C4.3002 0 3.36 0.990139 3.36 2.21154Z" fill="#F4EDE6"/>
<path d="M30.638 18V5.4H35.399C36.275 5.4 37.031 5.553 37.667 5.859C38.309 6.159 38.804 6.588 39.152 7.146C39.506 7.704 39.683 8.367 39.683 9.135C39.683 9.759 39.548 10.311 39.278 10.791C39.014 11.271 38.642 11.667 38.162 11.979C37.682 12.285 37.127 12.492 36.497 12.6L40.295 18H37.856L34.373 12.915H32.654V18H30.638ZM32.654 11.241H35.066C35.882 11.241 36.515 11.067 36.965 10.719C37.421 10.371 37.649 9.873 37.649 9.225C37.649 8.559 37.445 8.04 37.037 7.668C36.635 7.296 36.026 7.11 35.21 7.11H32.654V11.241ZM42.5911 18V5.4H50.7361V7.182H44.6071V10.584H49.8991V12.267H44.6071V16.2H50.7901V18H42.5911ZM52.7936 18V16.317L59.2466 7.245H53.0006V5.4H61.6766V7.074L55.2506 16.146H61.7306V18H52.7936ZM64.1068 18V5.4H72.2518V7.182H66.1228V10.584H71.4148V12.267H66.1228V16.2H72.3058V18H64.1068ZM75.1282 18V5.4H79.6912C80.5852 5.4 81.3742 5.556 82.0582 5.868C82.7482 6.174 83.2882 6.618 83.6782 7.2C84.0682 7.776 84.2632 8.469 84.2632 9.279C84.2632 10.113 84.0832 10.818 83.7232 11.394C83.3632 11.964 82.8382 12.399 82.1482 12.699C81.4642 12.993 80.6302 13.14 79.6462 13.14H77.1442V18H75.1282ZM77.1442 11.412H79.6732C80.4892 11.412 81.1222 11.241 81.5722 10.899C82.0222 10.551 82.2472 10.026 82.2472 9.324C82.2472 8.628 82.0162 8.094 81.5542 7.722C81.0922 7.35 80.4712 7.164 79.6912 7.164H77.1442V11.412ZM88.9304 18V7.245H85.3844V5.4H94.4924V7.245H90.9464V18H88.9304ZM96.6087 18V5.4H104.754V7.182H98.6247V10.584H103.917V12.267H98.6247V16.2H104.808V18H96.6087Z" fill="#F4EDE6"/>
</svg>
