<svg width="115" height="24" viewBox="0 0 115 24" fill="none" xmlns="http://www.w3.org/2000/svg">
<path d="M34.742 19.27C33.872 19.27 33.02 19.147 32.186 18.901C31.358 18.649 30.659 18.289 30.089 17.821L31.079 16.282C31.379 16.54 31.727 16.762 32.123 16.948C32.525 17.134 32.951 17.278 33.401 17.38C33.851 17.476 34.301 17.524 34.751 17.524C35.573 17.524 36.236 17.368 36.74 17.056C37.25 16.744 37.505 16.288 37.505 15.688C37.505 15.238 37.331 14.857 36.983 14.545C36.641 14.233 36.005 13.945 35.075 13.681L33.779 13.303C32.591 12.961 31.724 12.508 31.178 11.944C30.638 11.38 30.368 10.678 30.368 9.838C30.368 9.28 30.479 8.776 30.701 8.326C30.929 7.876 31.247 7.486 31.655 7.156C32.069 6.826 32.555 6.574 33.113 6.4C33.671 6.226 34.283 6.139 34.949 6.139C35.795 6.139 36.581 6.262 37.307 6.508C38.033 6.754 38.633 7.084 39.107 7.498L38.081 8.992C37.823 8.758 37.52 8.557 37.172 8.389C36.83 8.221 36.461 8.092 36.065 8.002C35.669 7.912 35.267 7.867 34.859 7.867C34.355 7.867 33.908 7.942 33.518 8.092C33.134 8.236 32.834 8.446 32.618 8.722C32.402 8.998 32.294 9.334 32.294 9.73C32.294 10.018 32.366 10.27 32.51 10.486C32.654 10.702 32.9 10.9 33.248 11.08C33.602 11.254 34.088 11.431 34.706 11.611L36.074 12.016C37.238 12.358 38.09 12.805 38.63 13.357C39.17 13.903 39.44 14.614 39.44 15.49C39.44 16.24 39.254 16.9 38.882 17.47C38.516 18.034 37.982 18.475 37.28 18.793C36.578 19.111 35.732 19.27 34.742 19.27ZM47.7907 19.27C46.8427 19.27 45.9637 19.105 45.1537 18.775C44.3497 18.439 43.6477 17.974 43.0477 17.38C42.4537 16.786 41.9887 16.09 41.6527 15.292C41.3227 14.494 41.1577 13.63 41.1577 12.7C41.1577 11.764 41.3227 10.897 41.6527 10.099C41.9887 9.301 42.4537 8.605 43.0477 8.011C43.6477 7.417 44.3497 6.955 45.1537 6.625C45.9637 6.295 46.8427 6.13 47.7907 6.13C48.7327 6.13 49.6057 6.298 50.4097 6.634C51.2137 6.97 51.9157 7.438 52.5157 8.038C53.1157 8.638 53.5807 9.337 53.9107 10.135C54.2467 10.927 54.4147 11.782 54.4147 12.7C54.4147 13.63 54.2467 14.494 53.9107 15.292C53.5807 16.09 53.1157 16.786 52.5157 17.38C51.9157 17.974 51.2137 18.439 50.4097 18.775C49.6057 19.105 48.7327 19.27 47.7907 19.27ZM47.7907 17.362C48.4267 17.362 49.0177 17.254 49.5637 17.038C50.1157 16.816 50.5957 16.501 51.0037 16.093C51.4117 15.679 51.7297 15.187 51.9577 14.617C52.1917 14.041 52.3087 13.402 52.3087 12.7C52.3087 11.758 52.1077 10.939 51.7057 10.243C51.3097 9.541 50.7697 8.998 50.0857 8.614C49.4017 8.23 48.6367 8.038 47.7907 8.038C47.1547 8.038 46.5607 8.149 46.0087 8.371C45.4627 8.587 44.9827 8.899 44.5687 9.307C44.1607 9.715 43.8397 10.207 43.6057 10.783C43.3777 11.353 43.2637 11.992 43.2637 12.7C43.2637 13.642 43.4647 14.464 43.8667 15.166C44.2687 15.862 44.8087 16.402 45.4867 16.786C46.1707 17.17 46.9387 17.362 47.7907 17.362ZM61.0037 19.27C60.1337 19.27 59.2817 19.147 58.4477 18.901C57.6197 18.649 56.9207 18.289 56.3507 17.821L57.3407 16.282C57.6407 16.54 57.9887 16.762 58.3847 16.948C58.7867 17.134 59.2127 17.278 59.6627 17.38C60.1127 17.476 60.5627 17.524 61.0127 17.524C61.8347 17.524 62.4977 17.368 63.0017 17.056C63.5117 16.744 63.7667 16.288 63.7667 15.688C63.7667 15.238 63.5927 14.857 63.2447 14.545C62.9027 14.233 62.2667 13.945 61.3367 13.681L60.0407 13.303C58.8527 12.961 57.9857 12.508 57.4397 11.944C56.8997 11.38 56.6297 10.678 56.6297 9.838C56.6297 9.28 56.7407 8.776 56.9627 8.326C57.1907 7.876 57.5087 7.486 57.9167 7.156C58.3307 6.826 58.8167 6.574 59.3747 6.4C59.9327 6.226 60.5447 6.139 61.2107 6.139C62.0567 6.139 62.8427 6.262 63.5687 6.508C64.2947 6.754 64.8947 7.084 65.3687 7.498L64.3427 8.992C64.0847 8.758 63.7817 8.557 63.4337 8.389C63.0917 8.221 62.7227 8.092 62.3267 8.002C61.9307 7.912 61.5287 7.867 61.1207 7.867C60.6167 7.867 60.1697 7.942 59.7797 8.092C59.3957 8.236 59.0957 8.446 58.8797 8.722C58.6637 8.998 58.5557 9.334 58.5557 9.73C58.5557 10.018 58.6277 10.27 58.7717 10.486C58.9157 10.702 59.1617 10.9 59.5097 11.08C59.8637 11.254 60.3497 11.431 60.9677 11.611L62.3357 12.016C63.4997 12.358 64.3517 12.805 64.8917 13.357C65.4317 13.903 65.7017 14.614 65.7017 15.49C65.7017 16.24 65.5157 16.9 65.1437 17.47C64.7777 18.034 64.2437 18.475 63.5417 18.793C62.8397 19.111 61.9937 19.27 61.0037 19.27ZM72.3065 19.27C71.4365 19.27 70.5845 19.147 69.7505 18.901C68.9225 18.649 68.2235 18.289 67.6535 17.821L68.6435 16.282C68.9435 16.54 69.2915 16.762 69.6875 16.948C70.0895 17.134 70.5155 17.278 70.9655 17.38C71.4155 17.476 71.8655 17.524 72.3155 17.524C73.1375 17.524 73.8005 17.368 74.3045 17.056C74.8145 16.744 75.0695 16.288 75.0695 15.688C75.0695 15.238 74.8955 14.857 74.5475 14.545C74.2055 14.233 73.5695 13.945 72.6395 13.681L71.3435 13.303C70.1555 12.961 69.2885 12.508 68.7425 11.944C68.2025 11.38 67.9325 10.678 67.9325 9.838C67.9325 9.28 68.0435 8.776 68.2655 8.326C68.4935 7.876 68.8115 7.486 69.2195 7.156C69.6335 6.826 70.1195 6.574 70.6775 6.4C71.2355 6.226 71.8475 6.139 72.5135 6.139C73.3595 6.139 74.1455 6.262 74.8715 6.508C75.5975 6.754 76.1975 7.084 76.6715 7.498L75.6455 8.992C75.3875 8.758 75.0845 8.557 74.7365 8.389C74.3945 8.221 74.0255 8.092 73.6295 8.002C73.2335 7.912 72.8315 7.867 72.4235 7.867C71.9195 7.867 71.4725 7.942 71.0825 8.092C70.6985 8.236 70.3985 8.446 70.1825 8.722C69.9665 8.998 69.8585 9.334 69.8585 9.73C69.8585 10.018 69.9305 10.27 70.0745 10.486C70.2185 10.702 70.4645 10.9 70.8125 11.08C71.1665 11.254 71.6525 11.431 72.2705 11.611L73.6385 12.016C74.8025 12.358 75.6545 12.805 76.1945 13.357C76.7345 13.903 77.0045 14.614 77.0045 15.49C77.0045 16.24 76.8185 16.9 76.4465 17.47C76.0805 18.034 75.5465 18.475 74.8445 18.793C74.1425 19.111 73.2965 19.27 72.3065 19.27ZM79.5052 19V6.4H87.6502V8.182H81.5212V11.584H86.8132V13.267H81.5212V17.2H87.7042V19H79.5052ZM90.5267 19V6.4H92.4527L98.8157 15.553V6.4H100.778V19H98.8517L92.4977 9.739V19H90.5267Z" fill="#4C4947"/>
<path d="M12 0C5.37258 0 0 5.37258 0 12C0 18.6274 5.37258 24 12 24C18.6274 24 24 18.6274 24 12C24 5.37258 18.6274 0 12 0ZM12.0791 4.19824L13.9702 10.103L20.168 10.2422L15.1362 13.8633L16.919 19.8018L11.9194 16.1353L6.82324 19.667L8.76562 13.7783L3.83202 10.0225L10.0327 10.0503L12.0791 4.19824Z" fill="#4C4947"/>
</svg>
