<svg width="85" height="23" viewBox="0 0 85 23" fill="none" xmlns="http://www.w3.org/2000/svg">
<g clip-path="url(#clip0_375_109)">
<path fill-rule="evenodd" clip-rule="evenodd" d="M2.16788 12.8994H1.23681C0.169439 12.8994 -0.394805 11.6274 0.317417 10.8267L9.58061 0.413632C10.0712 -0.137878 10.9288 -0.137877 11.4194 0.413633L20.6826 10.8267C21.3948 11.6274 20.8306 12.8994 19.7632 12.8994H18.8321V22.3784C18.8321 22.7217 18.5558 23 18.2149 23H13.8946V16.1627C13.8946 15.4761 13.3419 14.9195 12.6602 14.9195H8.95701C8.27528 14.9195 7.72263 15.4761 7.72263 16.1627V23H2.78508C2.44421 23 2.16788 22.7217 2.16788 22.3784V12.8994Z" fill="#F4EDE6"/>
<path d="M30.638 18V5.4H32.654V10.404H38.756V5.4H40.772V18H38.756V12.258H32.654V18H30.638ZM49.9001 18.27C48.9521 18.27 48.0731 18.105 47.2631 17.775C46.4591 17.439 45.7571 16.974 45.1571 16.38C44.5631 15.786 44.0981 15.09 43.7621 14.292C43.4321 13.494 43.2671 12.63 43.2671 11.7C43.2671 10.764 43.4321 9.897 43.7621 9.099C44.0981 8.301 44.5631 7.605 45.1571 7.011C45.7571 6.417 46.4591 5.955 47.2631 5.625C48.0731 5.295 48.9521 5.13 49.9001 5.13C50.8421 5.13 51.7151 5.298 52.5191 5.634C53.3231 5.97 54.0251 6.438 54.6251 7.038C55.2251 7.638 55.6901 8.337 56.0201 9.135C56.3561 9.927 56.5241 10.782 56.5241 11.7C56.5241 12.63 56.3561 13.494 56.0201 14.292C55.6901 15.09 55.2251 15.786 54.6251 16.38C54.0251 16.974 53.3231 17.439 52.5191 17.775C51.7151 18.105 50.8421 18.27 49.9001 18.27ZM49.9001 16.362C50.5361 16.362 51.1271 16.254 51.6731 16.038C52.2251 15.816 52.7051 15.501 53.1131 15.093C53.5211 14.679 53.8391 14.187 54.0671 13.617C54.3011 13.041 54.4181 12.402 54.4181 11.7C54.4181 10.758 54.2171 9.939 53.8151 9.243C53.4191 8.541 52.8791 7.998 52.1951 7.614C51.5111 7.23 50.7461 7.038 49.9001 7.038C49.2641 7.038 48.6701 7.149 48.1181 7.371C47.5721 7.587 47.0921 7.899 46.6781 8.307C46.2701 8.715 45.9491 9.207 45.7151 9.783C45.4871 10.353 45.3731 10.992 45.3731 11.7C45.3731 12.642 45.5741 13.464 45.9761 14.166C46.3781 14.862 46.9181 15.402 47.5961 15.786C48.2801 16.17 49.0481 16.362 49.9001 16.362ZM59.0091 18V5.4H60.9621L66.1011 13.761L65.3181 13.77L70.2681 5.4H72.1851V18H70.2141L70.2411 8.082L70.6281 8.217L66.3441 15.282H64.8681L60.5031 8.217L60.8271 8.082L60.8541 18H59.0091ZM75.4622 18V5.4H83.6072V7.182H77.4782V10.584H82.7702V12.267H77.4782V16.2H83.6612V18H75.4622Z" fill="#F4EDE6"/>
</g>
<defs>
<clipPath id="clip0_375_109">
<rect width="85" height="23" fill="white"/>
</clipPath>
</defs>
</svg>
