<svg width="82" height="23" viewBox="0 0 82 23" fill="none" xmlns="http://www.w3.org/2000/svg">
<path d="M29.638 18V5.4H31.654V18H29.638ZM34.9466 18V5.4H38.8886C40.1426 5.4 41.2496 5.67 42.2096 6.21C43.1696 6.744 43.9196 7.485 44.4596 8.433C45.0056 9.381 45.2786 10.473 45.2786 11.709C45.2786 12.627 45.1226 13.473 44.8106 14.247C44.5046 15.015 44.0666 15.678 43.4966 16.236C42.9266 16.794 42.2516 17.229 41.4716 17.541C40.6916 17.847 39.8306 18 38.8886 18H34.9466ZM36.9626 16.119H38.6456C39.3236 16.119 39.9386 16.02 40.4906 15.822C41.0486 15.618 41.5256 15.324 41.9216 14.94C42.3236 14.556 42.6326 14.094 42.8486 13.554C43.0646 13.008 43.1726 12.393 43.1726 11.709C43.1726 10.791 42.9836 10.002 42.6056 9.342C42.2336 8.676 41.7086 8.166 41.0306 7.812C40.3526 7.452 39.5576 7.272 38.6456 7.272H36.9626V16.119ZM47.7786 18V5.4H55.9236V7.182H49.7946V10.584H55.0866V12.267H49.7946V16.2H55.9776V18H47.7786ZM58.8001 18V5.4H66.9451V7.182H60.8161V10.584H66.1081V12.267H60.8161V16.2H66.9991V18H58.8001ZM69.8216 18V5.4H71.7476L78.1106 14.553V5.4H80.0726V18H78.1466L71.7926 8.739V18H69.8216Z" fill="#F4EDE6"/>
<path fill-rule="evenodd" clip-rule="evenodd" d="M10.8711 1.05415C11.171 1.02051 11.4679 1.00257 11.7619 1.00032C16.1572 0.961637 19.7792 4.38968 19.7792 8.54436C19.7792 10.8193 18.6657 12.8 17.1905 14.1944C16.0877 15.1607 15.4089 16.4038 15.4089 17.6367V22L15.3251 18.6359V22H13.2941H11.97H10.2297H8.19861V16.9538C8.00359 15.9608 7.45325 15.0612 6.63968 14.4055C4.65049 12.8092 3.45679 10.3307 3.85588 7.59736C4.35563 4.20128 7.23118 1.44523 10.8443 1.05415H10.8711ZM11.7619 2.68238C15.2049 2.63697 17.9976 5.29799 17.9976 8.54436C17.9976 10.3055 17.1335 11.8563 15.9371 12.985L15.9656 13.0119C14.7772 14.0473 14.0085 15.4417 13.7921 16.9547H9.89562C9.69964 15.5131 9.04489 14.1179 7.80754 13.117C6.23347 11.8555 5.29544 9.95477 5.60901 7.80846C5.99829 5.15922 8.27522 3.02889 11.0653 2.73705C11.2956 2.70689 11.5294 2.68808 11.7619 2.68238Z" fill="#F4EDE6"/>
</svg>
