<svg width="104" height="23" viewBox="0 0 104 23" fill="none" xmlns="http://www.w3.org/2000/svg">
<path d="M10.4117 5.01202C10.4117 4.80267 10.4138 4.29226 10.3546 3.67132C9.22882 4.07211 6.34107 2.61255 5.36559 1.53048C5.13713 2.29659 5.38631 3.19889 6.48291 3.60748C7.57952 4.01608 8.58668 4.33103 8.93974 4.43743C8.39837 4.67041 6.9174 4.27178 5.82521 4.12566C4.82238 3.9915 4.62993 4.63342 4.62993 4.63342C5.04568 4.43743 5.6338 4.70505 6.07361 4.84698C7.43221 5.28542 9.03835 5.69395 9.18897 5.31682C9.17157 5.52233 8.94412 5.76466 8.64836 6.06524C8.62885 6.08507 8.60839 6.1058 8.58833 6.12615C7.86743 6.85699 6.81606 7.92287 7.31972 9.6087C7.65203 8.62978 8.92724 6.56979 11.3697 6.16119C11.972 6.45913 13.376 7.31036 14.1735 8.33185C14.971 9.35333 15.5858 8.75746 15.7935 8.33185C15.709 8.31453 15.6154 8.30192 15.5188 8.2889C15.2592 8.25392 14.9783 8.21606 14.7966 8.07647C14.694 7.99758 14.6245 7.78151 14.5414 7.50412L14.5339 7.47888L14.5246 7.44783C14.3173 6.75333 14.0105 5.72529 12.9274 5.45892C12.1118 5.25836 12.8976 5.23828 13.9048 5.21256C14.1947 5.20515 14.503 5.19728 14.7966 5.1845C15.0416 5.17384 15.2764 5.15977 15.482 5.1397C15.9551 5.03765 16.4878 4.75413 16.9252 4.43743C17.5824 3.96162 17.7988 3.60748 17.7988 3.60748C17.4042 3.82029 17.2323 3.87179 16.115 4.12566C15.7661 4.17674 13.5418 4.01182 12.711 3.99054C13.2095 3.07546 15.3614 2.43315 15.3614 2.43315C14.8214 2.34803 12.4772 2.23569 11.4243 3.60748C11.4634 3.9 11.4638 4.60521 11.4243 5.01202C11.3916 5.34831 10.6063 5.64892 10.4117 5.01202Z" fill="#F4EDE6"/>
<path d="M11.4243 3.60748C11.2559 2.34853 10.7931 0.159971 10.7931 0.159971C10.7931 0.159971 10.3149 -0.274869 9.963 0.289301C9.963 0.289301 10.3546 2.51778 10.3546 3.67132C10.4138 4.29226 10.4117 4.80267 10.4117 5.01202C10.6063 5.64892 11.3916 5.34831 11.4243 5.01202C11.4638 4.60521 11.4634 3.9 11.4243 3.60748Z" fill="#F4EDE6"/>
<path fill-rule="evenodd" clip-rule="evenodd" d="M13.9048 5.21256C12.8976 5.23828 12.1118 5.25836 12.9274 5.45892C14.0105 5.72529 14.3173 6.75333 14.5246 7.44783L14.5339 7.47888L14.5414 7.50412C14.6245 7.78151 14.694 7.99758 14.7966 8.07647C14.9783 8.21606 15.2592 8.25392 15.5188 8.2889C15.6154 8.30192 15.709 8.31453 15.7935 8.33185C15.5858 8.75746 14.971 9.35333 14.1735 8.33185C13.376 7.31036 11.972 6.45913 11.3697 6.16119C8.92724 6.56979 7.65203 8.62978 7.31972 9.6087C6.81606 7.92287 7.86743 6.85699 8.58833 6.12615L8.64836 6.06524C8.94412 5.76466 9.17157 5.52233 9.18897 5.31682C9.03835 5.69395 7.43221 5.28542 6.07361 4.84698C1.49394 5.45892 -0.0991059 10.3481 0.00472908 12.9267C0.00474282 13.9269 0.273659 17.2818 2.31733 19.2737C2.38087 19.3282 2.44664 19.3858 2.51518 19.4458C3.92073 20.6757 6.49604 22.9293 14.9651 21.5868C17.4336 21.1955 21 18.3642 21 12.9267C21 8.75186 17.2915 6.08213 14.7966 5.1845C14.503 5.19728 14.1947 5.20515 13.9048 5.21256Z" fill="#F4EDE6"/>
<path d="M30.638 18V5.4H32.591L37.73 13.761L36.947 13.77L41.897 5.4H43.814V18H41.843L41.87 8.082L42.257 8.217L37.973 15.282H36.497L32.132 8.217L32.456 8.082L32.483 18H30.638ZM47.0911 18V5.4H55.2361V7.182H49.1071V10.584H54.3991V12.267H49.1071V16.2H55.2901V18H47.0911ZM58.1126 18V5.4H62.8736C63.7496 5.4 64.5056 5.553 65.1416 5.859C65.7836 6.159 66.2786 6.588 66.6266 7.146C66.9806 7.704 67.1576 8.367 67.1576 9.135C67.1576 9.759 67.0226 10.311 66.7526 10.791C66.4886 11.271 66.1166 11.667 65.6366 11.979C65.1566 12.285 64.6016 12.492 63.9716 12.6L67.7696 18H65.3306L61.8476 12.915H60.1286V18H58.1126ZM60.1286 11.241H62.5406C63.3566 11.241 63.9896 11.067 64.4396 10.719C64.8956 10.371 65.1236 9.873 65.1236 9.225C65.1236 8.559 64.9196 8.04 64.5116 7.668C64.1096 7.296 63.5006 7.11 62.6846 7.11H60.1286V11.241ZM70.0657 18V5.4H72.0817V11.853L77.2927 5.4H79.7767L75.1687 11.106L80.4697 18H77.8687L73.8457 12.645L72.0817 14.733V18H70.0657ZM82.5814 18V5.4H90.7264V7.182H84.5974V10.584H89.8894V12.267H84.5974V16.2H90.7804V18H82.5814ZM93.6028 18V5.4H98.3638C99.2398 5.4 99.9958 5.553 100.632 5.859C101.274 6.159 101.769 6.588 102.117 7.146C102.471 7.704 102.648 8.367 102.648 9.135C102.648 9.759 102.513 10.311 102.243 10.791C101.979 11.271 101.607 11.667 101.127 11.979C100.647 12.285 100.092 12.492 99.4618 12.6L103.26 18H100.821L97.3378 12.915H95.6188V18H93.6028ZM95.6188 11.241H98.0308C98.8468 11.241 99.4798 11.067 99.9298 10.719C100.386 10.371 100.614 9.873 100.614 9.225C100.614 8.559 100.41 8.04 100.002 7.668C99.5998 7.296 98.9908 7.11 98.1748 7.11H95.6188V11.241Z" fill="#F4EDE6"/>
</svg>
