<svg width="302" height="125" viewBox="0 0 302 125" fill="none" xmlns="http://www.w3.org/2000/svg">
<path d="M289.329 63.4344V2.18744H302V63.4344H289.329Z" fill="#F4EDE6"/>
<path d="M240.755 63.4344V2.18744H252.055L271.899 39.723V2.18744H282.993V63.4344H271.693L251.814 25.3738V63.4344H240.755Z" fill="#F4EDE6"/>
<path d="M210.133 63.4343C206.34 63.4343 202.83 62.6378 199.602 61.0447C196.398 59.4226 193.606 57.1778 191.226 54.3102C188.847 51.4426 186.997 48.0826 185.678 44.2302C184.382 40.3778 183.734 36.2068 183.734 31.7172C183.734 27.1985 184.382 23.013 185.678 19.1606C186.997 15.3082 188.847 11.9482 191.226 9.08067C193.606 6.21309 196.398 3.98275 199.602 2.38965C202.83 0.796549 206.34 0 210.133 0C213.95 0 217.46 0.811032 220.664 2.4331C223.868 4.05516 226.66 6.31446 229.04 9.21101C231.419 12.1076 233.257 15.482 234.553 19.3344C235.872 23.1579 236.532 27.2854 236.532 31.7172C236.532 36.2068 235.872 40.3778 234.553 44.2302C233.257 48.0826 231.419 51.4426 229.04 54.3102C226.66 57.1778 223.868 59.4226 220.664 61.0447C217.46 62.6378 213.95 63.4343 210.133 63.4343ZM210.133 49.8785C212.183 49.8785 214.056 49.4585 215.752 48.6185C217.472 47.7785 218.968 46.562 220.24 44.9689C221.512 43.3758 222.49 41.464 223.173 39.2337C223.88 36.9744 224.234 34.4689 224.234 31.7172C224.234 28.0096 223.621 24.7944 222.396 22.0717C221.194 19.3489 219.522 17.2489 217.378 15.7717C215.257 14.2655 212.842 13.5124 210.133 13.5124C208.107 13.5124 206.234 13.9469 204.514 14.8158C202.794 15.6558 201.298 16.8724 200.026 18.4655C198.777 20.0586 197.8 21.9703 197.093 24.2006C196.386 26.431 196.033 28.9365 196.033 31.7172C196.033 35.3958 196.645 38.5964 197.87 41.3192C199.095 44.042 200.768 46.1564 202.888 47.6626C205.032 49.1399 207.447 49.8785 210.133 49.8785Z" fill="#F4EDE6"/>
<path d="M160.961 63.4344V15.443H147.832V2.18744H185.846V15.443H172.717V63.4344H160.961Z" fill="#F4EDE6"/>
<path d="M103.482 63.4344L121.942 2.18744H135.531L154.168 63.4344H140.967L137.473 51.01H119.754L116.33 63.4344H103.482ZM122.401 38.8918H134.755L128.543 17.7179L122.401 38.8918Z" fill="#F4EDE6"/>
<path d="M86.4275 63.4343C82.6914 63.4343 79.1743 62.7102 75.8763 61.2619C72.5784 59.8136 69.6724 57.7281 67.1586 55.0054C64.6678 52.2537 62.7075 48.9226 61.2776 45.0123C59.8477 41.102 59.1328 36.6847 59.1328 31.7606C59.1328 26.8654 59.8131 22.4772 61.1738 18.5958C62.5576 14.6855 64.4718 11.34 66.9165 8.55929C69.3611 5.7786 72.1978 3.66413 75.4266 2.21586C78.6554 0.738619 82.1263 0 85.8394 0C87.5461 0 89.3334 0.173792 91.2015 0.521376C93.0696 0.839997 94.9723 1.41931 96.9096 2.25931C98.8468 3.0993 100.75 4.28689 102.618 5.82206L97.8436 16.9882C96.1831 15.6269 94.4188 14.6275 92.5507 13.9903C90.6826 13.3241 88.6992 12.991 86.6005 12.991C84.1789 12.991 81.9995 13.4255 80.0622 14.2944C78.125 15.1634 76.476 16.4234 75.1153 18.0744C73.7776 19.6965 72.7513 21.6662 72.0364 23.9834C71.3214 26.3006 70.964 28.922 70.964 31.8475C70.964 36.0475 71.6789 39.5668 73.1088 42.4054C74.5387 45.2151 76.476 47.344 78.9206 48.7923C81.3653 50.2116 84.0982 50.9212 87.1194 50.9212C88.3187 50.9212 89.4603 50.7909 90.5442 50.5302C91.6282 50.2695 92.5853 49.9654 93.4156 49.6178V38.8427H83.5216V27.3723H103.482V58.3943C102.029 59.4371 100.3 60.335 98.2933 61.0881C96.3099 61.8412 94.2689 62.4205 92.1702 62.826C90.0945 63.2316 88.1803 63.4343 86.4275 63.4343Z" fill="#F4EDE6"/>
<path d="M44.3495 63.4344V2.18744H54.909V63.4344H44.3495Z" fill="#F4EDE6"/>
<path d="M0 63.4344V2.18744H19.6309C23.2253 2.18744 26.3589 2.93115 29.0317 4.41858C31.7275 5.87684 33.8011 8.0059 35.2527 10.8058C36.7273 13.6056 37.4647 16.9596 37.4647 20.8677C37.4647 23.8718 37.0154 26.5258 36.1168 28.8299C35.2182 31.1047 33.9855 33.0005 32.4187 34.5171C30.8519 36.0337 29.0777 37.1711 27.0962 37.9294L40.1259 63.4344H26.5087L15.7255 40.9042H11.4744V63.4344H0ZM11.4744 29.2673H18.2485C20.6447 29.2673 22.5111 28.6694 23.8474 27.4737C25.2069 26.2779 25.8866 24.3822 25.8866 21.7865C25.8866 19.1616 25.2414 17.2367 23.9511 16.0117C22.6839 14.7576 20.8636 14.1306 18.4904 14.1306H11.4744V29.2673Z" fill="#F4EDE6"/>
<path d="M176.07 111.47C176.07 112.636 175.839 113.738 175.378 114.778C174.916 115.818 174.253 116.732 173.387 117.52C172.541 118.292 171.512 118.907 170.301 119.364C169.089 119.836 167.743 120.073 166.263 120.073C164.955 120.073 163.743 119.899 162.628 119.553C161.532 119.222 160.58 118.749 159.772 118.135C158.965 117.52 158.33 116.772 157.869 115.889C157.426 115.007 157.205 114.022 157.205 112.935C157.205 112.714 157.215 112.439 157.234 112.108C157.253 111.777 157.311 111.462 157.407 111.162C157.523 110.847 157.676 110.587 157.869 110.382C158.08 110.162 158.378 110.051 158.763 110.051C159.071 110.051 159.407 110.107 159.772 110.217C160.157 110.311 160.513 110.445 160.84 110.619C161.167 110.792 161.436 111.005 161.647 111.257C161.878 111.493 161.993 111.753 161.993 112.037V113.408C161.993 114.495 162.349 115.385 163.061 116.078C163.792 116.756 164.84 117.095 166.205 117.095C167.166 117.095 167.993 116.913 168.686 116.551C169.378 116.189 169.935 115.724 170.359 115.157C170.801 114.589 171.118 113.959 171.31 113.266C171.522 112.557 171.628 111.863 171.628 111.186C171.628 109.862 171.291 108.578 170.618 107.333C169.964 106.089 169.137 104.875 168.137 103.694C167.138 102.496 166.051 101.322 164.878 100.172C163.705 99.0219 162.618 97.8795 161.618 96.7451C160.619 95.6106 159.782 94.4761 159.109 93.3417C158.455 92.2072 158.128 91.0491 158.128 89.8674C158.128 88.9062 158.359 88.079 158.821 87.3857C159.301 86.6767 159.926 86.1015 160.695 85.6604C161.484 85.2034 162.368 84.8725 163.349 84.6677C164.349 84.4471 165.378 84.3368 166.436 84.3368C167.724 84.3368 168.878 84.4865 169.897 84.7859C170.916 85.0853 171.782 85.5186 172.493 86.0858C173.205 86.653 173.743 87.3542 174.108 88.1893C174.493 89.0086 174.685 89.9461 174.685 91.0018C174.685 91.1594 174.676 91.3563 174.656 91.5927C174.637 91.829 174.589 92.0654 174.512 92.3017C174.435 92.5223 174.32 92.7193 174.166 92.8926C174.012 93.0502 173.801 93.129 173.531 93.129C173.147 93.129 172.762 93.0502 172.378 92.8926C172.051 92.7508 171.782 92.6169 171.57 92.4908C171.378 92.349 171.224 92.1993 171.109 92.0418C170.993 91.8684 170.907 91.6794 170.849 91.4745C170.791 91.2697 170.743 91.0176 170.705 90.7182C170.609 90.151 170.484 89.6389 170.33 89.182C170.176 88.725 169.945 88.339 169.637 88.0238C169.33 87.7087 168.926 87.4645 168.426 87.2912C167.926 87.1178 167.282 87.0312 166.493 87.0312C165.936 87.0312 165.397 87.0785 164.878 87.173C164.378 87.2675 163.936 87.4251 163.551 87.6457C163.186 87.8663 162.888 88.1578 162.657 88.5202C162.445 88.8668 162.34 89.3001 162.34 89.8201C162.34 90.5449 162.532 91.2854 162.917 92.0418C163.32 92.7981 163.84 93.5701 164.474 94.358C165.128 95.1458 165.859 95.9573 166.666 96.7924C167.493 97.6117 168.339 98.4625 169.205 99.3449C170.07 100.227 170.907 101.141 171.714 102.087C172.541 103.016 173.272 103.985 173.906 104.994C174.56 106.002 175.079 107.05 175.464 108.137C175.868 109.208 176.07 110.319 176.07 111.47Z" fill="#F4EDE6"/>
<path d="M153.013 114.468C153.013 114.759 152.885 115.042 152.629 115.316C152.392 115.591 152.099 115.856 151.752 116.113C151.404 116.37 151.048 116.61 150.682 116.833C150.317 117.039 150.015 117.21 149.778 117.347C149.156 117.724 148.535 118.076 147.913 118.402C147.31 118.727 146.679 119.01 146.021 119.25C145.381 119.49 144.714 119.678 144.019 119.816C143.343 119.953 142.63 120.021 141.881 120.021L141.442 120.073C140.839 120.073 140.236 120.013 139.632 119.893C139.047 119.756 138.499 119.558 137.987 119.301C137.475 119.027 137.018 118.684 136.616 118.273C136.214 117.862 135.903 117.365 135.684 116.782C135.519 116.319 135.391 115.771 135.3 115.136C135.209 114.502 135.135 113.842 135.081 113.157C135.044 112.471 135.008 111.803 134.971 111.152C134.953 110.483 134.934 109.892 134.916 109.378C134.642 104.133 134.423 98.8882 134.258 93.6435C134.222 93.0437 134.194 92.4438 134.176 91.8439C134.158 91.244 134.148 90.6441 134.148 90.0443C134.148 89.0159 134.212 88.1418 134.34 87.4219C134.468 86.7021 134.724 86.1107 135.108 85.648C135.492 85.1852 136.04 84.851 136.753 84.6453C137.484 84.4397 138.444 84.3368 139.632 84.3368C140.82 84.3368 142.009 84.3454 143.197 84.3625C144.403 84.3797 145.61 84.3882 146.816 84.3882C147.182 84.3882 147.547 84.3797 147.913 84.3625C148.279 84.3282 148.644 84.354 149.01 84.4397C149.229 84.4739 149.421 84.5339 149.586 84.6196C149.75 84.6882 149.832 84.851 149.832 85.1081C149.832 85.7251 149.613 86.1879 149.174 86.4964C148.736 86.7878 148.215 86.9849 147.611 87.0877C147.008 87.1905 146.378 87.242 145.719 87.242C145.08 87.2248 144.55 87.2162 144.129 87.2162H140.565C140.199 87.2162 139.833 87.2162 139.468 87.2162C139.102 87.2162 138.737 87.2334 138.371 87.2677C138.261 87.5248 138.188 87.7904 138.152 88.0647C138.115 88.3389 138.097 88.6217 138.097 88.9131C138.097 90.7813 138.143 92.6238 138.234 94.4405C138.344 96.2573 138.444 98.0998 138.536 99.968C139.669 99.8823 140.793 99.7795 141.908 99.6595C143.023 99.5395 144.147 99.4024 145.281 99.2482C145.445 99.2482 145.591 99.2396 145.719 99.2225C145.866 99.2053 146.012 99.1967 146.158 99.1967C146.542 99.1967 146.807 99.291 146.953 99.4795C147.118 99.6681 147.2 99.9337 147.2 100.277C147.2 100.516 147.182 100.739 147.145 100.945C147.127 101.151 147.072 101.356 146.981 101.562C146.853 101.905 146.643 102.153 146.35 102.308C146.058 102.462 145.729 102.573 145.363 102.642C144.997 102.693 144.614 102.719 144.211 102.719C143.827 102.719 143.489 102.727 143.197 102.745C142.429 102.779 141.67 102.805 140.921 102.822C140.19 102.839 139.449 102.865 138.7 102.899C138.718 103.259 138.746 103.799 138.782 104.519C138.819 105.238 138.855 106.053 138.892 106.961C138.947 107.852 139.002 108.778 139.057 109.738C139.13 110.697 139.203 111.606 139.276 112.463C139.349 113.303 139.431 114.04 139.523 114.674C139.614 115.308 139.705 115.736 139.797 115.959C139.998 116.319 140.226 116.559 140.482 116.679C140.738 116.782 141.076 116.833 141.497 116.833C142.173 116.833 142.886 116.713 143.636 116.473C144.385 116.216 145.116 115.899 145.829 115.522C146.542 115.128 147.218 114.699 147.858 114.237C148.516 113.774 149.083 113.32 149.558 112.874C149.759 112.72 149.96 112.566 150.161 112.411C150.362 112.24 150.6 112.154 150.874 112.154C151.149 112.154 151.414 112.231 151.669 112.386C151.925 112.54 152.154 112.737 152.355 112.977C152.556 113.2 152.711 113.448 152.821 113.722C152.949 113.997 153.013 114.245 153.013 114.468Z" fill="#F4EDE6"/>
<path d="M129.956 91.59C129.956 93.4312 129.579 95.2817 128.825 97.1415C128.094 99.0012 127.057 100.74 125.713 102.358C124.393 103.976 122.801 105.418 120.939 106.682C119.076 107.947 117.037 108.905 114.821 109.556C114.962 111.099 115.127 112.633 115.316 114.158C115.505 115.684 115.764 117.218 116.094 118.761C116.165 119.04 116.235 119.329 116.306 119.626C116.401 119.924 116.448 120.231 116.448 120.547C116.448 121.03 116.294 121.356 115.988 121.523C115.681 121.691 115.245 121.774 114.68 121.774C114.279 121.774 113.795 121.737 113.23 121.663C112.664 121.588 112.181 121.477 111.78 121.328C111.308 121.123 110.99 120.919 110.825 120.714C110.683 120.491 110.577 120.194 110.507 119.822C110.106 118.241 109.858 116.66 109.764 115.079C109.693 113.498 109.587 111.917 109.446 110.337C108.974 110.299 108.585 110.206 108.279 110.058C107.972 109.89 107.819 109.611 107.819 109.221C107.819 108.849 107.949 108.458 108.208 108.049C108.491 107.64 108.809 107.324 109.163 107.101C108.951 103.641 108.856 100.21 108.88 96.8067C108.927 93.4033 108.927 89.972 108.88 86.5128C108.762 86.55 108.656 86.5779 108.562 86.5965C108.467 86.6151 108.361 86.6244 108.243 86.6244C107.984 86.6244 107.772 86.5779 107.607 86.4849C107.442 86.3733 107.3 86.2431 107.183 86.0943C107.088 85.9455 107.018 85.7875 106.97 85.6201C106.923 85.4341 106.9 85.2667 106.9 85.1179C106.9 84.56 107.076 84.1601 107.43 83.9184C107.784 83.658 108.267 83.4255 108.88 83.221C108.88 83.0164 108.88 82.7839 108.88 82.5235C108.904 82.2446 108.951 81.9935 109.021 81.7703C109.116 81.5285 109.257 81.3333 109.446 81.1845C109.634 81.0171 109.917 80.9334 110.294 80.9334C110.907 80.9334 111.497 81.0264 112.063 81.2124C112.628 81.3984 113.053 81.7145 113.336 82.1609C114.161 82.0493 114.962 81.947 115.74 81.854C116.518 81.761 117.32 81.7145 118.145 81.7145C120.008 81.7145 121.67 81.9656 123.131 82.4677C124.593 82.9513 125.831 83.6394 126.844 84.5321C127.858 85.4062 128.624 86.4477 129.143 87.6565C129.685 88.8654 129.956 90.1766 129.956 91.59ZM124.652 91.0878C124.652 90.2323 124.51 89.4326 124.228 88.6887C123.945 87.9262 123.52 87.2753 122.955 86.7359C122.389 86.178 121.67 85.741 120.797 85.4248C119.925 85.1086 118.9 84.9506 117.721 84.9506C117.084 84.9506 116.436 84.9877 115.776 85.0621C115.139 85.1365 114.515 85.2481 113.902 85.3969C113.902 88.8003 113.925 92.1758 113.972 95.5234C114.043 98.8711 114.208 102.228 114.467 105.594C115.976 104.98 117.355 104.125 118.605 103.028C119.854 101.93 120.927 100.722 121.823 99.4011C122.719 98.062 123.414 96.6765 123.909 95.2445C124.404 93.7938 124.652 92.4083 124.652 91.0878Z" fill="#F4EDE6"/>
<path d="M102.707 116.205C102.707 116.704 102.534 117.176 102.188 117.623C101.842 118.053 101.369 118.371 100.769 118.577C100.584 118.646 100.134 118.715 99.4186 118.783C98.7031 118.835 97.9299 118.887 97.0991 118.938C96.2682 118.99 95.4719 119.041 94.7103 119.093C93.9717 119.144 93.4524 119.179 93.1524 119.196C93.0832 119.488 92.8985 119.694 92.5985 119.815C92.2984 119.918 91.9753 119.969 91.6291 119.969C91.2368 119.969 90.7867 119.927 90.279 119.841C89.7712 119.755 89.3211 119.66 88.9288 119.557C87.8902 119.66 86.8401 119.772 85.7784 119.892C84.7167 120.012 83.6435 120.073 82.5587 120.073C81.7279 120.073 81.3124 119.78 81.3124 119.196C81.3124 118.612 81.5317 118.165 81.9702 117.855C82.4087 117.546 82.9396 117.314 83.5627 117.159C84.1859 117.004 84.8552 116.901 85.5707 116.85C86.2861 116.798 86.9208 116.738 87.4747 116.669C87.3594 111.788 87.2324 106.94 87.0939 102.127C86.9785 97.3145 86.9208 92.4672 86.9208 87.5855C85.9746 87.6371 85.0514 87.6887 84.1513 87.7402C83.2511 87.7746 82.351 87.7918 81.4509 87.7918C81.2663 87.7918 81.0701 87.7918 80.8624 87.7918C80.6547 87.7746 80.4585 87.7488 80.2738 87.7144C80.1123 87.6629 79.9738 87.5941 79.8584 87.5082C79.7199 87.405 79.6507 87.2589 79.6507 87.0699C79.6507 86.7433 79.743 86.4596 79.9276 86.219C80.1123 85.9612 80.3546 85.7549 80.6547 85.6002C80.9778 85.4283 81.324 85.2908 81.6933 85.1877C82.0625 85.0845 82.4434 85.0072 82.8357 84.9556C83.8281 84.8181 84.8321 84.7064 85.8476 84.6204C86.8862 84.5173 87.9133 84.4228 88.9288 84.3368C89.9674 84.2337 90.9944 84.1306 92.0099 84.0274C93.0485 83.9243 94.0756 83.7868 95.0911 83.6149C96.0605 83.4602 97.0298 83.2625 97.9992 83.0219C98.9685 82.764 99.961 82.6351 100.976 82.6351C101.53 82.6351 101.9 82.7898 102.084 83.0992C102.269 83.3914 102.361 83.718 102.361 84.079C102.361 84.3712 102.315 84.6548 102.223 84.9298C102.154 85.1877 101.992 85.4369 101.738 85.6776C101.6 85.8151 101.288 85.9526 100.803 86.0901C100.342 86.2104 99.7763 86.3221 99.107 86.4253C98.4608 86.5284 97.7568 86.6315 96.9952 86.7347C96.2566 86.8206 95.5296 86.9066 94.8141 86.9925C94.1218 87.0613 93.4871 87.1214 92.9101 87.173C92.3331 87.2246 91.9061 87.2589 91.6291 87.2761C91.883 89.6654 92.0561 92.0547 92.1484 94.4439C92.2638 96.8332 92.3561 99.2224 92.4254 101.612C92.4946 104.001 92.5639 106.39 92.6331 108.779C92.7023 111.169 92.8293 113.558 93.0139 115.947C94.3295 115.793 95.6566 115.646 96.9952 115.509C98.3338 115.354 99.684 115.277 101.046 115.277C101.438 115.277 101.807 115.346 102.154 115.483C102.523 115.604 102.707 115.844 102.707 116.205Z" fill="#F4EDE6"/>
<path d="M75.4584 111.861C75.4584 112.116 75.4129 112.371 75.322 112.626C75.2492 112.864 75.1673 113.102 75.0763 113.34C74.676 114.309 74.1848 115.21 73.6025 116.043C73.0203 116.859 72.3471 117.565 71.5829 118.16C70.8187 118.755 69.9544 119.223 68.9901 119.563C68.0257 119.903 66.9613 120.073 65.7968 120.073C64.2503 120.073 62.922 119.767 61.8121 119.155C60.7022 118.542 59.7561 117.752 58.9737 116.783C58.1913 115.797 57.5454 114.7 57.0359 113.493C56.5447 112.286 56.1535 111.079 55.8623 109.872C55.4257 108.12 55.0891 106.369 54.8525 104.618C54.616 102.85 54.4977 101.082 54.4977 99.3137C54.4977 98.2766 54.5432 97.2055 54.6342 96.1004C54.7433 94.9953 54.9253 93.9072 55.18 92.8361C55.4348 91.748 55.7805 90.7024 56.2171 89.6993C56.6538 88.6792 57.1997 87.7441 57.8547 86.894C58.5097 86.0269 59.283 85.2619 60.1746 84.5988C61.0843 83.9357 62.1396 83.4172 63.3405 83.0432C63.7772 82.8901 64.2321 82.7881 64.7051 82.7371C65.1782 82.6691 65.6513 82.6351 66.1244 82.6351C67.0705 82.6351 67.9712 82.7796 68.8263 83.0687C69.6815 83.3577 70.4275 83.7657 71.0643 84.2928C71.7193 84.8198 72.2288 85.4574 72.5927 86.2055C72.9748 86.9535 73.1658 87.7866 73.1658 88.7047C73.1658 89.0107 73.0931 89.2402 72.9475 89.3932C72.8019 89.5463 72.5472 89.6228 72.1833 89.6228C71.5101 89.6228 70.9824 89.5208 70.6003 89.3167C70.2364 89.1127 69.9362 88.8577 69.6997 88.5517C69.4632 88.2456 69.263 87.9141 69.0992 87.5571C68.9537 87.2 68.7717 86.8685 68.5534 86.5625C68.3351 86.2564 68.0439 86.0014 67.68 85.7974C67.3161 85.5934 66.8158 85.4914 66.1789 85.4914C65.5421 85.4914 64.9417 85.6104 64.3776 85.8484C63.8318 86.0694 63.3223 86.367 62.8492 86.741C62.3944 87.115 61.9759 87.5401 61.5938 88.0161C61.2299 88.4752 60.9024 88.9427 60.6113 89.4188C59.8471 90.7449 59.3103 92.1645 59.001 93.6777C58.6917 95.1738 58.537 96.6784 58.537 98.1916C58.537 98.7016 58.5552 99.3647 58.5916 100.181C58.6462 100.98 58.719 101.864 58.8099 102.833C58.9191 103.802 59.0647 104.831 59.2466 105.919C59.4286 106.99 59.6469 108.044 59.9016 109.081C60.1746 110.118 60.493 111.113 60.8569 112.065C61.239 113.017 61.6666 113.85 62.1396 114.564C62.6309 115.278 63.1768 115.848 63.7772 116.273C64.3958 116.698 65.0872 116.91 65.8514 116.91C66.6338 116.91 67.3252 116.723 67.9257 116.349C68.5261 115.958 69.0356 115.474 69.454 114.896C69.8907 114.301 70.2455 113.663 70.5185 112.983C70.8096 112.286 71.037 111.64 71.2008 111.045C71.2554 110.875 71.3008 110.722 71.3372 110.586C71.3918 110.45 71.4555 110.331 71.5283 110.229C71.6193 110.127 71.7284 110.05 71.8558 109.999C71.9832 109.948 72.1651 109.923 72.4016 109.923C72.6564 109.923 72.9566 109.974 73.3023 110.076C73.6662 110.161 74.0028 110.288 74.3121 110.458C74.6396 110.628 74.9126 110.832 75.1309 111.07C75.3493 111.308 75.4584 111.572 75.4584 111.861Z" fill="#F4EDE6"/>
<path d="M50.3058 114.468C50.3058 114.759 50.1636 115.042 49.8793 115.316C49.6152 115.591 49.2903 115.856 48.9044 116.113C48.5185 116.37 48.1224 116.61 47.7162 116.833C47.31 117.039 46.9748 117.21 46.7108 117.347C46.0202 117.724 45.3297 118.076 44.6391 118.402C43.9689 118.727 43.2681 119.01 42.5369 119.25C41.8261 119.49 41.0847 119.678 40.3129 119.816C39.5614 119.953 38.7693 120.021 37.9366 120.021L37.4491 120.073C36.7788 120.073 36.1086 120.013 35.4383 119.893C34.7884 119.756 34.1791 119.558 33.6104 119.301C33.0417 119.027 32.5339 118.684 32.0871 118.273C31.6402 117.862 31.2949 117.365 31.0512 116.782C30.8684 116.319 30.7262 115.771 30.6247 115.136C30.5231 114.502 30.4419 113.842 30.381 113.157C30.3403 112.471 30.2997 111.803 30.2591 111.152C30.2388 110.483 30.2185 109.892 30.1982 109.378C29.8935 104.133 29.6498 98.8882 29.467 93.6435C29.4263 93.0437 29.3959 92.4438 29.3756 91.8439C29.3553 91.244 29.3451 90.6441 29.3451 90.0443C29.3451 89.0159 29.4162 88.1418 29.5584 87.4219C29.7005 86.7021 29.9849 86.1107 30.4114 85.648C30.8379 85.1852 31.4473 84.851 32.2394 84.6453C33.0518 84.4397 34.1181 84.3368 35.4383 84.3368C36.7585 84.3368 38.0787 84.3454 39.3989 84.3625C40.7394 84.3797 42.08 84.3882 43.4205 84.3882C43.8267 84.3882 44.2329 84.3797 44.6391 84.3625C45.0453 84.3282 45.4515 84.354 45.8578 84.4397C46.1015 84.4739 46.3147 84.5339 46.4975 84.6196C46.6803 84.6882 46.7717 84.851 46.7717 85.1081C46.7717 85.7251 46.528 86.1879 46.0406 86.4964C45.5531 86.7878 44.9742 86.9849 44.304 87.0877C43.6337 87.1905 42.933 87.242 42.2018 87.242C41.4909 87.2248 40.9019 87.2162 40.4348 87.2162H36.4742C36.068 87.2162 35.6618 87.2162 35.2555 87.2162C34.8493 87.2162 34.4431 87.2334 34.0369 87.2677C33.915 87.5248 33.8338 87.7904 33.7932 88.0647C33.7525 88.3389 33.7322 88.6217 33.7322 88.9131C33.7322 90.7813 33.783 92.6238 33.8846 94.4405C34.0064 96.2573 34.1181 98.0998 34.2197 99.968C35.479 99.8823 36.7281 99.7795 37.967 99.6595C39.206 99.5395 40.4551 99.4024 41.7144 99.2482C41.8972 99.2482 42.0596 99.2396 42.2018 99.2225C42.3643 99.2053 42.5268 99.1967 42.6893 99.1967C43.1158 99.1967 43.4103 99.291 43.5728 99.4795C43.7556 99.6681 43.847 99.9337 43.847 100.277C43.847 100.516 43.8267 100.739 43.7861 100.945C43.7657 101.151 43.7048 101.356 43.6033 101.562C43.4611 101.905 43.2275 102.153 42.9025 102.308C42.5776 102.462 42.212 102.573 41.8058 102.642C41.3995 102.693 40.973 102.719 40.5262 102.719C40.0997 102.719 39.7239 102.727 39.3989 102.745C38.5459 102.779 37.703 102.805 36.8702 102.822C36.0578 102.839 35.2352 102.865 34.4025 102.899C34.4228 103.259 34.4533 103.799 34.4939 104.519C34.5345 105.238 34.5751 106.053 34.6157 106.961C34.6767 107.852 34.7376 108.778 34.7985 109.738C34.8798 110.697 34.961 111.606 35.0423 112.463C35.1235 113.303 35.2149 114.04 35.3165 114.674C35.418 115.308 35.5196 115.736 35.6211 115.959C35.8445 116.319 36.0984 116.559 36.3828 116.679C36.6671 116.782 37.0429 116.833 37.51 116.833C38.2615 116.833 39.0536 116.713 39.8864 116.473C40.7191 116.216 41.5316 115.899 42.3237 115.522C43.1158 115.128 43.8673 114.699 44.5782 114.237C45.3094 113.774 45.939 113.32 46.4671 112.874C46.6905 112.72 46.9139 112.566 47.1373 112.411C47.3608 112.24 47.6248 112.154 47.9294 112.154C48.2341 112.154 48.5286 112.231 48.813 112.386C49.0973 112.54 49.3512 112.737 49.5746 112.977C49.798 113.2 49.9707 113.448 50.0925 113.722C50.2347 113.997 50.3058 114.245 50.3058 114.468Z" fill="#F4EDE6"/>
<path d="M29.345 119.012C29.345 119.214 29.1983 119.382 28.9048 119.517C28.6114 119.652 28.2568 119.761 27.8411 119.845C27.4498 119.929 27.0463 119.988 26.6306 120.022C26.2393 120.056 25.9459 120.073 25.7502 120.073C25.2611 120.073 24.8576 120.039 24.5397 119.972C24.2463 119.921 23.8917 119.82 23.476 119.668C23.3537 119.618 23.0603 119.407 22.5956 119.037C22.1555 118.65 21.593 118.153 20.9083 117.546C20.248 116.94 19.49 116.25 18.6341 115.475C17.8026 114.7 16.9345 113.909 16.0297 113.1C15.1493 112.275 14.269 111.458 13.3886 110.65C12.5328 109.825 11.738 109.075 11.0044 108.402C10.2707 107.711 9.63494 107.113 9.09695 106.608C8.58341 106.086 8.2166 105.724 7.99651 105.522L7.77642 105.573C7.92315 107.577 8.10655 109.581 8.32664 111.585C8.57118 113.572 8.97467 115.542 9.53712 117.496C9.61048 117.698 9.68385 117.909 9.75721 118.127C9.85503 118.346 9.90393 118.574 9.90393 118.81C9.90393 119.197 9.72053 119.441 9.35371 119.542C8.9869 119.66 8.58341 119.719 8.14323 119.719C7.89869 119.719 7.60524 119.711 7.26288 119.694C6.92053 119.677 6.56594 119.643 6.19913 119.593C5.83232 119.542 5.48996 119.475 5.17205 119.391C4.8786 119.323 4.64629 119.231 4.47511 119.113C4.13275 118.911 3.91266 118.7 3.81485 118.481C3.74149 118.262 3.66812 118.001 3.59476 117.698C2.88559 114.313 2.43319 110.92 2.23756 107.518C2.06638 104.099 1.98079 100.689 1.98079 97.2868C1.98079 95.8048 1.99301 94.348 2.01747 92.9165C2.04192 91.485 2.0786 90.0283 2.12751 88.5463C1.83406 88.5295 1.55284 88.4621 1.28384 88.3442C1.0393 88.2263 0.819214 88.0832 0.623581 87.9148C0.427948 87.7295 0.268996 87.5443 0.146725 87.359C0.0489083 87.1569 0 86.9632 0 86.778C0 86.5928 0.0611354 86.4075 0.183406 86.2222C0.330131 86.037 0.50131 85.8686 0.696943 85.717C0.917031 85.5654 1.14935 85.4223 1.39389 85.2876C1.63843 85.1528 1.85852 85.0434 2.05415 84.9592V84.5045C2.05415 84.3361 2.05415 84.1424 2.05415 83.9235C2.0786 83.7045 2.12751 83.5024 2.20087 83.3172C2.29869 83.1151 2.44542 82.9551 2.64105 82.8372C2.83668 82.7025 3.13013 82.6351 3.5214 82.6351C4.03494 82.6351 4.54847 82.6941 5.06201 82.812C5.57555 82.9298 6.01572 83.1403 6.38253 83.4435C8.2166 82.9383 10.1485 82.6856 12.1782 82.6856C13.9633 82.6856 15.5895 82.9298 17.0568 83.4182C18.524 83.9066 19.7712 84.5634 20.7983 85.3886C21.8498 86.2138 22.6568 87.1653 23.2192 88.2432C23.7817 89.321 24.0629 90.4493 24.0629 91.6282C24.0629 92.8913 23.7205 94.1207 23.0358 95.3164C22.3511 96.4952 21.4585 97.6152 20.3581 98.6762C19.2576 99.7371 17.9983 100.714 16.5799 101.606C15.186 102.482 13.7677 103.248 12.3249 103.905C14.6236 106.01 16.9467 108.099 19.2943 110.17C21.6664 112.225 24.0873 114.279 26.5572 116.334C26.7039 116.452 26.924 116.629 27.2175 116.864C27.5354 117.1 27.8533 117.361 28.1712 117.648C28.4891 117.917 28.7581 118.178 28.9782 118.431C29.2227 118.683 29.345 118.877 29.345 119.012ZM18.6341 91.224C18.6341 90.6009 18.4751 89.9525 18.1572 89.2789C17.8393 88.6052 17.3869 87.999 16.8 87.4601C16.2131 86.9043 15.5039 86.4496 14.6725 86.0959C13.8655 85.7423 12.9607 85.5654 11.9581 85.5654C11.1511 85.5654 10.3441 85.6497 9.53712 85.8181C8.75459 85.9696 7.99651 86.1717 7.26288 86.4243C7.31179 88.9336 7.34847 91.4429 7.37293 93.9523C7.42184 96.4616 7.48297 98.9709 7.55633 101.48L8.2166 101.531C9.48821 101.042 10.7354 100.428 11.9581 99.6866C13.2052 98.9456 14.3179 98.1204 15.2961 97.211C16.2987 96.3016 17.1057 95.3416 17.717 94.3312C18.3284 93.3039 18.6341 92.2682 18.6341 91.224Z" fill="#F4EDE6"/>
<path d="M227.354 101.328C227.741 101.328 228.112 101.502 228.386 101.811C228.659 102.119 228.813 102.538 228.813 102.975C228.813 108.832 226.688 114.439 222.921 118.566C219.155 122.691 214.057 125 208.75 125C203.443 125 198.345 122.691 194.579 118.566C190.812 114.439 188.687 108.832 188.687 102.975C188.687 102.538 188.841 102.119 189.115 101.811C189.388 101.502 189.759 101.328 190.146 101.328H227.354ZM191.675 104.622C192.027 108.972 193.758 113.078 196.611 116.203C199.823 119.722 204.189 121.707 208.75 121.707C213.311 121.707 217.677 119.722 220.889 116.203C223.742 113.078 225.474 108.972 225.825 104.622H191.675Z" fill="#F4EDE6"/>
<path d="M223.519 80.0361C224.882 80.141 226.175 80.8862 227.151 82.1439C228.128 83.403 228.72 85.0893 228.803 86.887C228.867 88.2618 228.628 89.6187 228.13 90.8091C228.385 91.45 228.567 92.1391 228.667 92.8556C228.825 93.9876 228.775 95.1524 228.521 96.2537C228.267 97.3545 227.817 98.3589 227.211 99.1874C226.857 99.6712 226.454 100.084 226.017 100.423C226.046 101.061 226.015 101.703 225.919 102.333C225.779 103.252 225.104 103.846 224.412 103.66C223.72 103.474 223.273 102.579 223.413 101.66C223.503 101.063 223.49 100.448 223.374 99.8574C223.206 99.0025 223.559 98.119 224.187 97.8258C224.642 97.6133 225.049 97.2676 225.376 96.8208C225.703 96.374 225.942 95.838 226.075 95.2586C226.209 94.6795 226.236 94.0691 226.153 93.4758C226.07 92.8822 225.879 92.3176 225.593 91.829C225.229 91.206 225.237 90.3322 225.611 89.7195C226.069 88.968 226.294 88.0345 226.25 87.0959C226.207 86.1571 225.897 85.2613 225.37 84.5818C224.841 83.901 224.13 83.4844 223.37 83.4259C222.61 83.3676 221.864 83.6723 221.274 84.27C220.824 84.7262 220.2 84.7339 219.743 84.2899C219.405 83.9616 219.016 83.7242 218.599 83.5967C218.182 83.4692 217.748 83.4549 217.326 83.5536C216.905 83.6523 216.506 83.862 216.154 84.1672C215.802 84.4723 215.506 84.8657 215.282 85.3198C214.955 85.9832 214.325 86.2579 213.766 85.9815C213.242 85.7229 212.672 85.6522 212.118 85.7775C211.564 85.9028 211.051 86.2189 210.632 86.6863C210.213 87.1534 209.905 87.7527 209.735 88.4177C209.566 89.0821 209.54 89.7917 209.659 90.4724C209.74 90.9327 209.672 91.4176 209.473 91.8091C209.274 92.2006 208.96 92.465 208.609 92.5372C207.834 92.6965 207.143 93.2254 206.67 94.0032C206.198 94.7796 205.975 95.7479 206.038 96.7147C206.101 97.6819 206.446 98.5946 207.016 99.2637C207.587 99.9339 208.341 100.308 209.127 100.299C209.833 100.29 210.411 101.044 210.417 101.982C210.423 102.919 209.856 103.686 209.149 103.695C207.741 103.712 206.373 103.042 205.321 101.808C204.269 100.572 203.611 98.8578 203.49 97.0066C203.37 95.1552 203.798 93.3205 204.679 91.8705C205.301 90.8477 206.115 90.0707 207.03 89.6018C207.032 88.8325 207.124 88.0646 207.312 87.3281C207.634 86.0659 208.214 84.9466 208.986 84.0859C209.757 83.2254 210.692 82.6546 211.689 82.4292C212.369 82.2753 213.063 82.2881 213.736 82.459C214.039 82.0297 214.381 81.6474 214.755 81.323C215.399 80.7647 216.124 80.3863 216.883 80.2086C217.642 80.0309 218.422 80.0584 219.174 80.2882C219.63 80.4277 220.069 80.6413 220.484 80.9217C221.408 80.2651 222.459 79.9546 223.519 80.0361Z" fill="#F4EDE6"/>
<path d="M214.739 92.3046C215.067 91.6976 215.59 91.7133 215.908 92.3385C216.226 92.9639 216.219 93.9631 215.891 94.5701L211.208 103.25C210.88 103.857 210.357 103.841 210.039 103.216C209.721 102.591 209.729 101.591 210.057 100.984L214.739 92.3046Z" fill="#F4EDE6"/>
<path d="M196.824 83.3396C198.6 82.346 200.546 82.1268 202.41 82.7092C204.274 83.2918 205.976 84.6524 207.291 86.6212C207.842 87.4455 207.826 88.7597 207.256 89.5562C206.687 90.3523 205.778 90.3296 205.227 89.5056C204.313 88.1371 203.121 87.1789 201.804 86.7671C200.487 86.3554 199.112 86.5109 197.86 87.211C196.609 87.9112 195.543 89.1205 194.798 90.6711C194.054 92.2211 193.662 94.0439 193.669 95.9006V95.9107C193.669 97.595 193.997 99.1742 194.566 100.561C194.97 101.546 194.745 102.819 194.064 103.404C193.383 103.989 192.503 103.664 192.098 102.679C191.336 100.821 190.861 98.6806 190.805 96.3749L190.799 95.9107C190.791 93.1953 191.365 90.5446 192.441 88.3036C193.519 86.0602 195.048 84.3336 196.824 83.3396Z" fill="#F4EDE6"/>
</svg>
