<svg width="115" height="24" viewBox="0 0 115 24" fill="none" xmlns="http://www.w3.org/2000/svg">
<path d="M34.742 19.27C33.872 19.27 33.02 19.147 32.186 18.901C31.358 18.649 30.659 18.289 30.089 17.821L31.079 16.282C31.379 16.54 31.727 16.762 32.123 16.948C32.525 17.134 32.951 17.278 33.401 17.38C33.851 17.476 34.301 17.524 34.751 17.524C35.573 17.524 36.236 17.368 36.74 17.056C37.25 16.744 37.505 16.288 37.505 15.688C37.505 15.238 37.331 14.857 36.983 14.545C36.641 14.233 36.005 13.945 35.075 13.681L33.779 13.303C32.591 12.961 31.724 12.508 31.178 11.944C30.638 11.38 30.368 10.678 30.368 9.838C30.368 9.28 30.479 8.776 30.701 8.326C30.929 7.876 31.247 7.486 31.655 7.156C32.069 6.826 32.555 6.574 33.113 6.4C33.671 6.226 34.283 6.139 34.949 6.139C35.795 6.139 36.581 6.262 37.307 6.508C38.033 6.754 38.633 7.084 39.107 7.498L38.081 8.992C37.823 8.758 37.52 8.557 37.172 8.389C36.83 8.221 36.461 8.092 36.065 8.002C35.669 7.912 35.267 7.867 34.859 7.867C34.355 7.867 33.908 7.942 33.518 8.092C33.134 8.236 32.834 8.446 32.618 8.722C32.402 8.998 32.294 9.334 32.294 9.73C32.294 10.018 32.366 10.27 32.51 10.486C32.654 10.702 32.9 10.9 33.248 11.08C33.602 11.254 34.088 11.431 34.706 11.611L36.074 12.016C37.238 12.358 38.09 12.805 38.63 13.357C39.17 13.903 39.44 14.614 39.44 15.49C39.44 16.24 39.254 16.9 38.882 17.47C38.516 18.034 37.982 18.475 37.28 18.793C36.578 19.111 35.732 19.27 34.742 19.27ZM41.9407 19V6.4H46.5037C47.3977 6.4 48.1867 6.556 48.8707 6.868C49.5607 7.174 50.1007 7.618 50.4907 8.2C50.8807 8.776 51.0757 9.469 51.0757 10.279C51.0757 11.113 50.8957 11.818 50.5357 12.394C50.1757 12.964 49.6507 13.399 48.9607 13.699C48.2767 13.993 47.4427 14.14 46.4587 14.14H43.9567V19H41.9407ZM43.9567 12.412H46.4857C47.3017 12.412 47.9347 12.241 48.3847 11.899C48.8347 11.551 49.0597 11.026 49.0597 10.324C49.0597 9.628 48.8287 9.094 48.3667 8.722C47.9047 8.35 47.2837 8.164 46.5037 8.164H43.9567V12.412ZM53.3489 19V6.4H61.4939V8.182H55.3649V11.584H60.6569V13.267H55.3649V17.2H61.5479V19H53.3489ZM70.1124 19.27C68.8044 19.27 67.6614 19 66.6834 18.46C65.7054 17.92 64.9434 17.158 64.3974 16.174C63.8574 15.184 63.5874 14.029 63.5874 12.709C63.5874 11.749 63.7464 10.87 64.0644 10.072C64.3884 9.268 64.8414 8.572 65.4234 7.984C66.0114 7.396 66.7044 6.94 67.5024 6.616C68.3004 6.292 69.1764 6.13 70.1304 6.13C71.0904 6.13 71.9184 6.25 72.6144 6.49C73.3164 6.73 73.9284 7.072 74.4504 7.516L73.4064 9.163C73.0104 8.797 72.5484 8.524 72.0204 8.344C71.4924 8.164 70.9104 8.074 70.2744 8.074C69.5724 8.074 68.9394 8.182 68.3754 8.398C67.8114 8.614 67.3284 8.923 66.9264 9.325C66.5304 9.721 66.2244 10.204 66.0084 10.774C65.7984 11.338 65.6934 11.977 65.6934 12.691C65.6934 13.663 65.8824 14.494 66.2604 15.184C66.6444 15.874 67.1844 16.402 67.8804 16.768C68.5824 17.128 69.4104 17.308 70.3644 17.308C71.0004 17.308 71.6124 17.215 72.2004 17.029C72.7944 16.837 73.3494 16.528 73.8654 16.102L74.8014 17.803C74.1954 18.277 73.5024 18.64 72.7224 18.892C71.9484 19.144 71.0784 19.27 70.1124 19.27ZM76.9212 19V6.4H78.9372V19H76.9212ZM80.7808 19L85.6768 6.4H87.8638L92.8858 19H90.6088L89.4478 15.994H84.1108L82.9948 19H80.7808ZM84.6328 14.257H88.9078L86.7298 8.767L84.6328 14.257ZM94.7103 19V6.4H96.7263V17.146H102.216V19H94.7103ZM108.605 19.27C107.735 19.27 106.883 19.147 106.049 18.901C105.221 18.649 104.522 18.289 103.952 17.821L104.942 16.282C105.242 16.54 105.59 16.762 105.986 16.948C106.388 17.134 106.814 17.278 107.264 17.38C107.714 17.476 108.164 17.524 108.614 17.524C109.436 17.524 110.099 17.368 110.603 17.056C111.113 16.744 111.368 16.288 111.368 15.688C111.368 15.238 111.194 14.857 110.846 14.545C110.504 14.233 109.868 13.945 108.938 13.681L107.642 13.303C106.454 12.961 105.587 12.508 105.041 11.944C104.501 11.38 104.231 10.678 104.231 9.838C104.231 9.28 104.342 8.776 104.564 8.326C104.792 7.876 105.11 7.486 105.518 7.156C105.932 6.826 106.418 6.574 106.976 6.4C107.534 6.226 108.146 6.139 108.812 6.139C109.658 6.139 110.444 6.262 111.17 6.508C111.896 6.754 112.496 7.084 112.97 7.498L111.944 8.992C111.686 8.758 111.383 8.557 111.035 8.389C110.693 8.221 110.324 8.092 109.928 8.002C109.532 7.912 109.13 7.867 108.722 7.867C108.218 7.867 107.771 7.942 107.381 8.092C106.997 8.236 106.697 8.446 106.481 8.722C106.265 8.998 106.157 9.334 106.157 9.73C106.157 10.018 106.229 10.27 106.373 10.486C106.517 10.702 106.763 10.9 107.111 11.08C107.465 11.254 107.951 11.431 108.569 11.611L109.937 12.016C111.101 12.358 111.953 12.805 112.493 13.357C113.033 13.903 113.303 14.614 113.303 15.49C113.303 16.24 113.117 16.9 112.745 17.47C112.379 18.034 111.845 18.475 111.143 18.793C110.441 19.111 109.595 19.27 108.605 19.27Z" fill="#4C4947"/>
<path d="M12 0C5.37258 0 0 5.37258 0 12C0 18.6274 5.37258 24 12 24C18.6274 24 24 18.6274 24 12C24 5.37258 18.6274 0 12 0ZM12.0791 4.19824L13.9702 10.103L20.168 10.2422L15.1362 13.8633L16.919 19.8018L11.9194 16.1353L6.82324 19.667L8.76562 13.7783L3.83202 10.0225L10.0327 10.0503L12.0791 4.19824Z" fill="#4C4947"/>
</svg>
